<?xml version="1.0" encoding="UTF-8"?>
<svg xmlns="http://www.w3.org/2000/svg" viewBox="0 0 96 72" role="img" aria-labelledby="title description">
  <title id="title">Carrick AI GameBench CGB mark</title>
  <desc id="description">Geometric CGB letters above an ascending three-bar benchmark scale.</desc>
  <rect x="1.5" y="1.5" width="93" height="69" rx="17" fill="#F4FAF9" stroke="#A9E8E2" stroke-width="3"/>
  <g fill="none" stroke="#143C39" stroke-width="5" stroke-linecap="round" stroke-linejoin="round">
    <path d="M29 18H20c-6 0-10 5-10 12s4 12 10 12h9"/>
    <path d="M52 19h-9c-6 0-10 4-10 11s4 11 10 11h9V31h-7"/>
    <path d="M59 18v24h10c5 0 8-3 8-7s-3-6-8-6H59m10 0c5 0 7-2 7-5s-3-6-8-6h-9"/>
  </g>
  <path d="M10 56h39" fill="none" stroke="#39C5BB" stroke-width="4" stroke-linecap="round"/>
  <g fill="#39C5BB">
    <rect x="58" y="52" width="6" height="7" rx="2"/>
    <rect x="68" y="47" width="6" height="12" rx="2"/>
    <rect x="78" y="41" width="6" height="18" rx="2"/>
  </g>
  <circle cx="86" cy="18" r="3" fill="#FF6B9D"/>
</svg>
